<?xml version="1.0" encoding="iso-8859-1"?>
<!-- Generator: Adobe Illustrator 14.0.0, SVG Export Plug-In . SVG Version: 6.00 Build 43363)  -->
<!DOCTYPE svg PUBLIC "-//W3C//DTD SVG 1.1//EN" "http://www.w3.org/Graphics/SVG/1.1/DTD/svg11.dtd">
<svg version="1.1" id="Layer_1" xmlns="http://www.w3.org/2000/svg" xmlns:xlink="http://www.w3.org/1999/xlink" x="0px" y="0px"
	 width="403.938px" height="179.408px" viewBox="0 0 403.938 179.408" style="enable-background:new 0 0 403.938 179.408;"
	 xml:space="preserve">
<g>
	<g>
		<polygon points="27.492,61.563 0,61.563 0,139.389 84.208,139.389 84.208,127.411 27.492,127.411 		"/>
		<rect x="120.88" y="61.563" width="27.494" height="77.826"/>
		<path d="M268.901,63.994c-5.196-1.613-14.266-2.431-26.957-2.431h-44.2v77.826h27.006v-30.22h10.261
			c15.038,0,27.208-2.282,36.171-6.782c9.087-4.562,13.695-11.298,13.695-20.022c0-4.56-1.369-8.401-4.069-11.418
			C278.127,67.957,274.121,65.617,268.901,63.994z M224.75,73.065h9.417c6.527,0,11.328,0.497,14.268,1.477
			c2.9,0.97,5.063,2.304,6.427,3.965c1.351,1.643,2.035,3.498,2.035,5.513c0,3.598-2.214,6.795-6.581,9.5
			c-4.445,2.753-11.546,4.149-21.104,4.149h-4.461V73.065z"/>
		<path d="M397.974,105.73c-3.912-3.519-13.027-7.712-27.094-12.464l-9.199-3.067c-7.899-2.674-12.898-4.8-14.861-6.323
			c-1.934-1.451-2.915-3.012-2.915-4.641c0-2.139,1.603-4.026,4.763-5.608c3.277-1.64,8.143-2.471,14.458-2.471
			c7.699,0,18.25,1.443,31.358,4.291l0.609,0.132V62.423l-0.433-0.06c-12.849-1.796-24.553-2.708-34.786-2.708
			c-13.77,0-24.492,2.1-31.872,6.242c-7.473,4.196-11.262,9.338-11.262,15.286c0,4.75,2.282,8.971,6.783,12.542
			c4.359,3.515,12.797,7.39,25.077,11.517l8.588,2.86c7.901,2.676,12.931,4.867,14.944,6.511c1.981,1.653,2.944,3.434,2.944,5.443
			c0,2.597-1.762,4.88-5.237,6.788c-3.568,1.959-9.093,2.951-16.418,2.951c-4.104,0-8.654-0.246-13.521-0.73
			c-4.863-0.485-12.338-2.003-22.215-4.507l-0.626-0.159v14.294l0.44,0.055c13.621,1.691,25.728,2.55,35.982,2.55
			c17.358,0,30.21-2.271,38.196-6.751c8.088-4.531,12.188-10.105,12.188-16.568C403.868,113.463,401.887,109.345,397.974,105.73z"/>
	</g>
	<path style="fill:#D8373A;" d="M157.951,18.329c-0.074-0.026-0.167-0.058-0.332-0.102
		C157.733,18.254,157.839,18.292,157.951,18.329z M159.694,20.377c0.152-0.868,3.198-1.329,4.066-1.8
		c-1.092-0.069-2.134,0.559-3.103,0.552c-1.002-0.003-1.801-0.499-2.707-0.801c0.265,0.105,0.049,0.18,0.297,0.589
		c-2.435,1.308-2.77,0.987-5.315,0.396c-0.258,3.152,5.618,4.827,4.974,8.175c-2.733-0.674-2.072,1.837-3.699,1.598
		c-0.478-0.866-1.641-1.555-1.061-2.626c1.173,0.24,1.616,2.633,2.829,1.129c0.964-1.199-0.513-2.562-1.134-3.461
		c-0.809-1.172-1.062-2.284-2.498-3.084c-1.748-0.984-1.979,0.159-3.028,1.636c-0.144-0.214-0.557-0.442-0.697-0.818
		c0.333,0.733-0.12,1.527,0.066,2.218c0.203,0.765,0.5,0.842,1.069,1.467c0.945,1.043,1.881,1.918,2.322,3.314
		c0.626,1.966-0.432,2.143-1.459,0.792c-0.886-1.163-1.104-2.875-1.753-4.038c-0.401-0.005-1.011,0.223-1.314,0.462
		c0.564,1.554,3.816,3.818,3.57,5.339c-0.503-0.253-0.59-0.133-0.897-0.659c-2.019-0.081-2.08-3.773-3.329-4.66
		c-0.263,1.114-1.242,0.416-1.651,1.599c-0.074,0.211,0.379,1.957,0.352,2.464c-1.688,0.517-2.42-1.22-2.333-2.627
		c-0.227-0.006-0.43-0.017-0.654,0.004c-0.066,2.392,6.227,7.721,4.252,9.252l-0.356-0.178c-0.034-0.012-0.07-0.023-0.095-0.034
		c-0.585-0.632-1.073-1.352-1.668-1.947c-0.375-1.005-1.338-1.5-1.806-2.568c-0.454-1.046-0.417-2.135-1.432-2.951
		c-0.798-0.637-2.009-1.117-2.976-0.356c-1.458,1.149,0.023,1.405,0.878,2.322c0.615,0.659,1.665,1.777,2.11,2.542
		c0.46,0.796,1.042,2.785-0.735,1.936c-1.765-0.845-1.315-4.893-3.708-4.979c-0.1,0.503-0.332,0.981-0.215,1.546
		c-0.398-0.099-0.994,0.151-1.393,0.053c0.301,1.45,2.719,2.865,2.449,4.409H137.9c-0.029-0.115-0.057-0.233-0.107-0.37
		c-0.306-0.844-1.395-1.459-1.988-2.101c-0.498-0.532-1.459-2.333-2.299-1.938c-0.646,0.309-0.418,2.292-0.36,2.837
		c0.149,1.363,2.565,4.561-0.716,3.892c-0.69-1.368-1.574-2.286-2.355-3.49c-0.45-0.685-0.45-0.761-0.531-1.442
		c-0.055-0.441,1.412-1.905-0.521-1.447c0.185,0.462,0.078,1.074,0.143,1.562c-1.734-0.311-1.212,1.304,0.353,0.95
		c0.087,0.41,0.18,1.181,0.19,1.539c-0.327,0.091-0.882,0.097-1.202,0.006c-0.174-0.515-0.516-0.62-0.593-1.194
		c-1.043,0.082-1.949-1.832-1.607-2.676c-0.244-0.11-0.769-0.196-1.019-0.183c-0.139,1.051,0.804,1.404,0.658,2.445
		c-0.577,0.221-1.177,0.41-1.751,0.568h-0.182c-0.208-0.85-0.021-1.821-0.54-2.45c-0.462-0.567-1.664-1.106-2.268-0.546
		c-0.67,0.617-0.236,1.923,0.216,2.55c-1.111-0.214-1.79-0.291-2.941-1c-0.468,0.438-0.745,0.539-0.745,1.25
		c-1.659-1.522-6.77,2.381-7.293,4.298c-1.394,5.081,5.988,2.783,2.861,0.359c0.918-0.08,1.144-0.893,1.104-1.762
		c2.762-0.817,0.688,5.146,4.223,4.059c0.322-2.044-1.346-3.366-1.193-5.123c2.553-0.66,0.139,6.122,3.876,5.531
		c0.058,2.331,2.788,2.736,1.661,0.715c0.18,0.007,0.339,0.035,0.483,0.084c0.246,0.261,0.557,0.474,0.893,0.626
		c0.505,0.488,0.975,0.969,2.155,0.477c-0.075-0.223-0.167-0.421-0.253-0.629c0.236-0.449-0.051-1.182-0.909-1.758
		c-0.018-0.04-0.041-0.079-0.072-0.121c1.033-1.533,1.516,1.396,1.625,2.157c0.277,0.079,0.74,0.076,1.018,0
		c0.165-0.687-0.019-1.357-0.447-1.905c0.779-0.181,3.699,2.444,3.171-0.185c0.644-0.063,1.284,0.239,1.739,0.483
		c-0.095-0.293-0.038-0.725-0.139-1.02c0.757-0.076,1.348,0.259,1.417,0.993c-0.073-0.312,0.056-0.685,0.025-0.993
		c0.346-0.101,1.033-0.105,1.38,0.007c0.009,0.345,0.285,0.663,0.267,1.013c5.268,0.313,1.525-1.039,1.9-3.712
		c0.044-0.335,0.141-0.587,0.248-0.802c0.18-0.02,0.371-0.04,0.574-0.076c0,4.054,3.608,2.355,2.664-0.778
		c0.431-0.188,0.87-0.188,1.299,0.073c0.019,0.955,0.453,1.779,1.437,1.721c0.074-0.036,0.636-0.398,0.878-0.533
		c0.211-1.18-0.357-1.864-0.654-2.839c0.705-0.229,1.333,0.924,1.946,1.696c0.062,0.171,0.141,0.333,0.215,0.433
		c0.038-0.021,0.081-0.036,0.122-0.054c0.413,0.381,0.816,0.426,1.245-0.386c0.229-0.04,0.463-0.074,0.707-0.1
		c0.074-1.386-0.898-4.64,1.246-4.584c0.062,0.731-0.033,3.637,1.507,1.808c0.73-0.868-0.905-3.126,1.352-2.521
		c0.055,0.583,0.276,0.999,0.408,1.551c1.978,0.084,4-0.489,5.061-2.337c0.472-0.825,0.254-1.846,0.755-2.679
		c0.171-0.278,0.799-0.276,1.114-0.672c0.404-0.507,0.648-0.771,0.696-1.396c-1.219,0.276-1.772-0.74-1.413-1.681
		c0.305-0.797,1.671-0.019,1.419-1.522c-0.399-0.046-0.828-0.411-1.223-0.438c0.108-0.13,0.242-0.351,0.365-0.49
		c-0.647-0.3-1.227-0.786-1.06-1.583c2.478-0.745,1.687,3.526,3.341,2.654C161.326,22.992,159.714,20.27,159.694,20.377z
		 M123.456,36.943c-0.009,0.004-0.019,0.009-0.032,0.013c-0.032-0.402-0.07-0.707-0.173-0.95
		C123.43,36.17,123.515,36.446,123.456,36.943z M104.231,32.691c-0.907,0.921,0.893,0.786,1.716,0.961
		C105.803,32.698,105.355,31.542,104.231,32.691z M105.947,33.653c0.042,0.232,0.06,0.45,0.063,0.62
		c0.148,0.008,0.301,0.006,0.449,0.008c-0.01-0.198-0.057-0.364-0.152-0.479C106.245,33.734,106.116,33.688,105.947,33.653z
		 M111.295,34.113c0.922-0.598,1.518-0.224,2.365-1.286c0.782-0.979,1.022-2.306,1.613-3.35c0.781-1.377,0.487-0.865,2.123-1.647
		c0.026-0.684-0.003-1.396,0.04-2.076c0.408,0.078,1.086-0.188,1.385-0.157c-0.299-0.523,0.604-2.968,1.217-3.313
		c1.487-0.844,1.371,0.814,2.7,0.57c0.063-1.276,0.177-2.73-0.189-3.914c-0.187-0.582-1.086-2.566-1.543-2.703
		c-0.387-1.112-1.535-2.191-1.613-3.377c2.007-0.646,4.149,4.016,4.659,5.191c0.196,0.446,1.063,3.743,2.076,1.97
		c0.865-1.504-1.613-1.51-1.374-2.838c2.285-0.917,2.109,2.064,4.051,1.55c0.454-1.829-1.186-3.748-2.103-5.006
		c-0.712-0.97-0.378-1.35-0.723-2.459c-0.247-0.777-1.07-0.944-0.864-1.933c0.445-0.218,0.542-0.591,0.839-0.923
		c-0.563-0.412-1.014-0.994-1.419-1.598c-1.59,0.753-1.172,1.326-1.772,2.668c-0.521,1.177-0.381,0.369-1.081,1.06
		c-0.403,0.397-0.876,0.66-1.089,1.231c-3.209,0.271-0.41,3.878,0.419,5.037c-0.839,2.569-4.65-2.718-6.12-0.898
		c0.79,0.965,2.63,1.993,2.848,3.006c-0.862,0.066-1.5,0.27-2.333-0.015c-0.845-0.295-1.217-1.502-1.558-1.619
		c-0.152-0.05-0.319-0.064-0.496-0.056c0.729-0.604,1.387-1.625,1.556-2.383c0.123-0.538,0.186-1.033,0.231-1.502
		c-0.694-0.361-1.674-0.458-2.37-1.024c-0.243-0.2-1.805,3.661-1.647,4.242c0.203,0.775,0.554,1.111,0.959,1.171
		c-0.604,0.44-1.055,1.099-0.945,1.719c-1.352,0.083-2.711-0.3-2.434,1.275c0.005,0.037,1.021,1.423,1.074,1.469
		c0.251,0.211,0.634,0.489,0.858,0.677c0.15,0.126,0.553-0.135,0.71,0.037c1.108,1.191-0.064,1.669,0.363,2.99
		c0.219,0.691,2.151,2.704-0.162,2.3c-0.103-0.948-1.071-0.962-1.432-1.765c-0.184-0.415,0.092-0.986-0.021-1.421
		c-0.373-1.374-0.2-2-1.95-1.213c0.269,1.144,1.555,2.997,1.593,4.065c0.107,2.732-2.586,0.343-3.541,1.786
		c-0.737,1.105,2.713,0.107,3.313,0.537c1.32,0.957,0.417,1.516-0.118,2.37c-0.307,0.483-0.88,1.123-1.291,1.704
		c-0.542,0.024-1.091,0.028-1.641,0.02c0.083,1.179-1.042,3.657-0.616,4.981c0.879,0.246,2.668,0.816,3.529,0.208
		c0.752-0.543,0.628-1.787,0.569-2.893C110.831,35.685,110.227,34.805,111.295,34.113z M116.336,12.521
		c2.468-0.014,1.581-2.188,2.849-3.082c0.482-0.339,1.172-0.006,1.654-0.259c0.365-0.191,0.457-0.707,0.768-0.996
		c0.729-0.667,1.54-1.308,1.816-2.241c-3.363,0.147-4.545-0.416-6.743,2.239c-1.541,1.865-1.368,3.298-1.541,5.161
		c0.046,0.021,0.086,0.043,0.127,0.067L116.336,12.521z M128.115,12.917c1.092,2.006,1.725,2.127,1.805,4.577
		c1.198,0.198,3.515-1.205,3.552-2.479h-0.533c0.3-0.115,0.514-0.231,0.86-0.201c0.066-0.277,0.184-0.43,0.258-0.662
		c0.653,0.427,1.119,1.066,1.59,1.733c4.55,0.17,0.376-2.945-1.969-2.626c0.099,0.934-0.575,1.315-1.462,1.053
		c-1.198-0.354-0.224-0.817-0.171-1.114c0.132-0.669,0.752-0.874,0.717-1.929c-0.03-0.825-0.022-1.595-0.865-1.949
		c0.304,2.142-2.15-0.134-3.135-0.002c0.895-0.209,3.754-1.676,1.723-2.918c-1.085-0.66-3.99,0.766-3.976,2.014
		c0.012,0.879,0.815,1.605,1.071,2.459C127.834,11.705,127.703,12.15,128.115,12.917z M129.952,4.076
		c0.602,0.284,1.111,1.303,1.704,1.69c0.337,0.731,0.249,0.703,1.092,0.891c-0.072,0.725,0.135,1.266,0.688,1.558
		c0.98-2.248-1.701-2.023-1.92-4.057c1.291-0.282,2.669,0.44,3.222,1.578c0.132,0.257,0.162,3.351,1.386,1.66
		c0.812-1.12-2.148-1.952,0.014-2.917c1.631-0.732,1.707,1.03,2.664,1.23c-0.086-0.407,0.133-0.961,0.045-1.374
		c1.911-0.611,3.389,0.188,3.689,1.794c0.439,2.306-0.89,2.288,1.108,4.016c0.756,0.652,1.919,1.268,1.625,2.552
		c-0.258,1.136-1.329,1.509-2.236,1.218c-0.468-0.152-1.688-1.338-1.535-1.935c0.178-0.679,1.443-0.826,2.123-0.918
		c-0.155-0.98-1.789-1.54-2.692-1.708c-1.611-0.296-1.872-0.327-2.634,1.019c-1.163,2.046,0.215,4.582,2.835,4.255
		c0.393-1.191,4.471-0.291,5.707-0.354c0.162,1.151,1.36,1.277,2.522,1.811c1.448,0.65,2.198,0.66,2.472-1.427
		c-0.751-0.57-1.641-1.005-1.387-2.113c1.432-0.201,0.317-1.57-0.045-2.363c0.408-0.206,1.097-0.273,1.611-0.136
		c0.324,1.071,0.494,2.625,1.788,2.813c0.034-0.22,0.034-0.453,0.051-0.668c1.172-1.419,2.374-0.494,2.676-2.862
		c1.557-0.186,1.815,2.859,0.867,3.551c-0.899,0.664-3.637-0.245-3.554,1.391c0.358,0.188,4.663-0.048,5.171-0.32
		c1.361-0.733,0.121-1.423,0.375-2.366c0.259-0.974,1.002-1.226,1.739-1.539c-2.793-0.069-3.977-0.712-5.563-2.881
		c-1.266-1.719-2.609-2.977-4.734-3.395c-1.378-0.271-2.609,0.136-3.967,0.002c-0.933-0.091-1.558-0.824-2.27-1.108
		c-2.769-1.105-1.926,1.499-4.657,1.074c-0.08-0.39-0.343-0.414-0.53-0.642c0.026-0.417-0.04-0.896-0.054-1.263
		c-2.812-0.148-3.614-0.368-5.876-1.835c-1.192,0.593-2.228,2.12-3.375,2.537c-0.868,0.316-3.638-0.297-2.838,1.559
		C128.157,4.209,129.155,3.701,129.952,4.076z"/>
	<rect x="0.07" y="156.417" style="fill:#D8373A;" width="403.868" height="22.991"/>
	<g>
		<path style="fill:#FFFFFF;" d="M14.004,174.248v-12.325h1.751v11.019h5.474v1.307H14.004z"/>
		<path style="fill:#FFFFFF;" d="M23.092,174.248v-12.325h1.75v12.325H23.092z"/>
		<path style="fill:#FFFFFF;" d="M38.962,176.71c-1.937-0.627-3.559-1.373-4.868-2.241c-0.521,0.056-0.923,0.081-1.207,0.081
			c-1.032,0-1.996-0.268-2.889-0.809c-0.895-0.543-1.567-1.316-2.02-2.317c-0.452-1.007-0.678-2.118-0.678-3.34
			c0-1.219,0.225-2.329,0.674-3.332c0.451-1.001,1.118-1.772,2.004-2.317c0.885-0.543,1.914-0.816,3.085-0.816
			c1.176,0,2.208,0.273,3.094,0.819c0.885,0.547,1.552,1.32,1.998,2.323c0.447,1.001,0.67,2.118,0.67,3.352
			c0,1.265-0.243,2.416-0.73,3.45c-0.485,1.034-1.296,1.845-2.43,2.427c1.416,0.621,2.884,1.065,4.404,1.33L38.962,176.71z
			 M33.063,173.245c1.23,0,2.188-0.457,2.874-1.375c0.684-0.918,1.027-2.182,1.027-3.785c0-1.604-0.343-2.863-1.027-3.781
			c-0.686-0.92-1.644-1.38-2.874-1.38c-1.231,0-2.188,0.46-2.875,1.38c-0.684,0.918-1.027,2.173-1.027,3.767
			c0,1.599,0.339,2.86,1.02,3.787C30.859,172.785,31.821,173.245,33.063,173.245z"/>
		<path style="fill:#FFFFFF;" d="M41.172,161.922h1.75v7.776c0,1.355,0.253,2.287,0.757,2.79c0.506,0.504,1.212,0.756,2.118,0.756
			c0.572,0,1.055-0.096,1.45-0.292c0.393-0.198,0.699-0.519,0.916-0.963c0.216-0.445,0.325-1.188,0.325-2.231v-7.836h1.528v7.809
			c0,1.338-0.166,2.302-0.496,2.895c-0.33,0.589-0.797,1.061-1.399,1.407c-0.602,0.346-1.4,0.518-2.394,0.518
			c-1.06,0-1.918-0.18-2.572-0.541c-0.655-0.359-1.15-0.854-1.482-1.479c-0.333-0.627-0.5-1.577-0.5-2.846V161.922z"/>
		<path style="fill:#FFFFFF;" d="M58.139,174.55c-1.166,0-2.181-0.259-3.043-0.778c-0.864-0.524-1.533-1.285-2.007-2.287
			c-0.475-1.002-0.712-2.136-0.712-3.4c0-1.219,0.226-2.329,0.68-3.332c0.451-1.001,1.119-1.772,2.001-2.317
			c0.884-0.543,1.911-0.816,3.082-0.816c1.171,0,2.199,0.273,3.082,0.816c0.882,0.545,1.55,1.316,2.002,2.317
			c0.453,1.003,0.679,2.113,0.679,3.332c0,1.217-0.224,2.322-0.67,3.319c-0.447,0.994-1.108,1.768-1.982,2.319
			C60.375,174.277,59.337,174.55,58.139,174.55z M58.139,173.245c1.242,0,2.202-0.46,2.882-1.388
			c0.678-0.927,1.019-2.188,1.019-3.787c0-1.594-0.342-2.849-1.027-3.767c-0.686-0.92-1.643-1.38-2.874-1.38
			c-1.23,0-2.189,0.46-2.874,1.38c-0.684,0.918-1.027,2.173-1.027,3.767c0,1.599,0.34,2.86,1.019,3.787
			C55.937,172.785,56.897,173.245,58.139,173.245z"/>
		<path style="fill:#FFFFFF;" d="M66.349,174.248v-12.325h3.731c1.382,0,2.338,0.311,2.864,0.928
			c0.528,0.62,0.791,1.328,0.791,2.126c0,0.467-0.093,0.926-0.279,1.381c-0.186,0.455-0.45,0.859-0.794,1.214
			c-0.345,0.357-0.813,0.655-1.408,0.898l4.107,5.778h-2.136l-3.513-5.223H68.08v5.223H66.349z M68.08,167.72h0.566
			c1.294,0,2.168-0.268,2.62-0.805c0.453-0.539,0.679-1.129,0.679-1.773c0-0.381-0.084-0.716-0.253-1.004
			c-0.17-0.283-0.433-0.506-0.792-0.668c-0.358-0.161-0.931-0.243-1.72-0.243H68.08V167.72z"/>
		<path style="fill:#FFFFFF;" d="M82.527,174.248v-12.325h1.751v12.325H82.527z"/>
		<path style="fill:#FFFFFF;" d="M87.452,174.248v-12.325h1.725l6.189,9.512v-9.512h1.508v12.325h-1.716l-6.197-9.522v9.522H87.452z
			"/>
		<path style="fill:#FFFFFF;" d="M100.057,174.248v-12.325h7.002v1.305h-5.252v4.128h4.422v1.296h-4.422v5.597H100.057z"/>
		<path style="fill:#FFFFFF;" d="M114.248,174.55c-1.166,0-2.181-0.259-3.043-0.778c-0.864-0.524-1.533-1.285-2.007-2.287
			c-0.475-1.002-0.712-2.136-0.712-3.4c0-1.219,0.227-2.329,0.68-3.332c0.451-1.001,1.119-1.772,2.002-2.317
			c0.883-0.543,1.91-0.816,3.081-0.816c1.172,0,2.199,0.273,3.082,0.816c0.883,0.545,1.551,1.316,2.002,2.317
			c0.453,1.003,0.679,2.113,0.679,3.332c0,1.217-0.224,2.322-0.67,3.319c-0.446,0.994-1.108,1.768-1.982,2.319
			C116.485,174.277,115.448,174.55,114.248,174.55z M114.248,173.245c1.243,0,2.202-0.46,2.883-1.388
			c0.678-0.927,1.018-2.188,1.018-3.787c0-1.594-0.342-2.849-1.027-3.767c-0.686-0.92-1.643-1.38-2.874-1.38
			c-1.23,0-2.189,0.46-2.873,1.38c-0.685,0.918-1.028,2.173-1.028,3.767c0,1.599,0.34,2.86,1.019,3.787
			C112.046,172.785,113.006,173.245,114.248,173.245z"/>
		<path style="fill:#FFFFFF;" d="M122.458,174.248v-12.325h3.731c1.381,0,2.337,0.311,2.864,0.928
			c0.528,0.62,0.792,1.328,0.792,2.126c0,0.467-0.094,0.926-0.279,1.381c-0.186,0.455-0.451,0.859-0.795,1.214
			c-0.345,0.357-0.813,0.655-1.407,0.898l4.106,5.778h-2.136l-3.513-5.223h-1.633v5.223H122.458z M124.189,167.72h0.566
			c1.294,0,2.168-0.268,2.62-0.805c0.453-0.539,0.68-1.129,0.68-1.773c0-0.381-0.084-0.716-0.254-1.004
			c-0.169-0.283-0.433-0.506-0.792-0.668c-0.358-0.161-0.931-0.243-1.72-0.243h-1.099V167.72z"/>
		<path style="fill:#FFFFFF;" d="M133.248,174.248v-12.325h2.434l3.41,9.532l3.531-9.532h2.15v12.325h-1.629v-10.029l-3.41,9.204
			h-1.678l-3.301-9.224v10.049H133.248z"/>
		<path style="fill:#FFFFFF;" d="M146.497,174.248l4.886-12.325h1.734l4.824,12.325h-1.891l-1.348-3.421h-5.225l-1.356,3.421
			H146.497z M149.995,169.522h4.193l-2.091-5.304L149.995,169.522z"/>
		<path style="fill:#FFFFFF;" d="M162.64,174.248v-11.021h-4.371v-1.305h10.494v1.305h-4.372v11.021H162.64z"/>
		<path style="fill:#FFFFFF;" d="M170.495,174.248v-12.325h1.75v12.325H170.495z"/>
		<path style="fill:#FFFFFF;" d="M180.464,174.55c-1.167,0-2.181-0.259-3.043-0.778c-0.864-0.524-1.533-1.285-2.007-2.287
			s-0.712-2.136-0.712-3.4c0-1.219,0.227-2.329,0.679-3.332c0.452-1.001,1.119-1.772,2.002-2.317
			c0.883-0.543,1.91-0.816,3.082-0.816c1.171,0,2.199,0.273,3.081,0.816c0.883,0.545,1.551,1.316,2.002,2.317
			c0.453,1.003,0.679,2.113,0.679,3.332c0,1.217-0.224,2.322-0.67,3.319c-0.447,0.994-1.109,1.768-1.982,2.319
			C182.7,174.277,181.664,174.55,180.464,174.55z M180.464,173.245c1.242,0,2.202-0.46,2.883-1.388
			c0.678-0.927,1.018-2.188,1.018-3.787c0-1.594-0.343-2.849-1.027-3.767c-0.686-0.92-1.644-1.38-2.874-1.38
			c-1.231,0-2.19,0.46-2.874,1.38c-0.684,0.918-1.027,2.173-1.027,3.767c0,1.599,0.34,2.86,1.019,3.787
			C178.262,172.785,179.222,173.245,180.464,173.245z"/>
		<path style="fill:#FFFFFF;" d="M188.674,174.248v-12.325h1.725l6.189,9.512v-9.512h1.507v12.325h-1.715l-6.197-9.522v9.522
			H188.674z"/>
		<path style="fill:#FFFFFF;" d="M206.679,174.248v-12.325h3.293c1.169,0,2.012,0.116,2.52,0.352
			c0.512,0.232,0.901,0.59,1.174,1.075c0.273,0.479,0.41,1.083,0.41,1.806c0,0.843-0.183,1.581-0.542,2.215
			c-0.36,0.634-0.94,1.12-1.734,1.464c-0.8,0.344-1.675,0.516-2.637,0.516h-0.753v4.898H206.679z M208.41,168.024h0.683
			c1.118,0,1.923-0.264,2.408-0.789c0.488-0.527,0.733-1.179,0.733-1.958c0-0.42-0.078-0.779-0.232-1.07
			c-0.157-0.292-0.404-0.526-0.749-0.706c-0.344-0.182-0.946-0.273-1.809-0.273h-1.034V168.024z"/>
		<path style="fill:#FFFFFF;" d="M216.109,174.248v-12.325h3.729c1.384,0,2.337,0.311,2.866,0.928
			c0.526,0.62,0.792,1.328,0.792,2.126c0,0.467-0.097,0.926-0.281,1.381c-0.184,0.455-0.449,0.859-0.794,1.214
			c-0.347,0.357-0.814,0.655-1.409,0.898l4.108,5.778h-2.135l-3.515-5.223h-1.631v5.223H216.109z M217.84,167.72h0.566
			c1.293,0,2.165-0.268,2.618-0.805c0.452-0.539,0.681-1.129,0.681-1.773c0-0.381-0.086-0.716-0.256-1.004
			c-0.169-0.283-0.433-0.506-0.792-0.668c-0.359-0.161-0.931-0.243-1.72-0.243h-1.098V167.72z"/>
		<path style="fill:#FFFFFF;" d="M226.886,174.248v-12.325h1.751v12.325H226.886z"/>
		<path style="fill:#FFFFFF;" d="M241.083,173.61c-0.506,0.264-0.956,0.455-1.356,0.581c-0.395,0.122-0.81,0.216-1.234,0.273
			c-0.43,0.058-0.893,0.086-1.392,0.086c-2.079,0-3.597-0.612-4.561-1.837c-0.964-1.227-1.444-2.768-1.444-4.619
			c0-1.892,0.498-3.444,1.497-4.653c1.002-1.215,2.532-1.822,4.6-1.822c1.098,0,2.39,0.182,3.872,0.546v1.64
			c-1.241-0.43-2.1-0.683-2.567-0.762c-0.47-0.077-0.916-0.119-1.335-0.119c-1.478,0-2.548,0.502-3.211,1.503
			c-0.665,1.002-0.994,2.231-0.994,3.684c0,1.513,0.38,2.74,1.144,3.674c0.764,0.936,1.845,1.4,3.243,1.4
			c0.39,0,0.774-0.032,1.161-0.102c0.387-0.07,0.771-0.172,1.153-0.308c0.383-0.138,0.858-0.356,1.425-0.663V173.61z"/>
		<path style="fill:#FFFFFF;" d="M243.608,174.248v-12.325h1.751v12.325H243.608z"/>
		<path style="fill:#FFFFFF;" d="M248.533,174.248v-12.325h1.724l6.19,9.512v-9.512h1.507v12.325h-1.715l-6.197-9.522v9.522H248.533
			z"/>
		<path style="fill:#FFFFFF;" d="M270.395,173.914c-1.074,0.308-1.861,0.493-2.357,0.551c-0.498,0.058-1.012,0.086-1.543,0.086
			c-1.476,0-2.639-0.266-3.484-0.799c-0.844-0.531-1.487-1.301-1.93-2.303c-0.442-1.007-0.66-2.124-0.66-3.364
			c0-1.893,0.501-3.44,1.5-4.649s2.524-1.816,4.571-1.816c1.237,0,2.53,0.187,3.884,0.556v1.62
			c-1.248-0.428-2.103-0.681-2.573-0.758c-0.466-0.071-0.908-0.113-1.325-0.113c-1.478,0-2.548,0.506-3.208,1.513
			c-0.658,1.007-0.986,2.228-0.986,3.658c0,0.888,0.137,1.716,0.417,2.484c0.281,0.77,0.749,1.407,1.406,1.91
			c0.661,0.507,1.544,0.756,2.656,0.756c0.281,0,0.55-0.015,0.797-0.046c0.248-0.03,0.612-0.116,1.088-0.26v-4.015h1.748V173.914z"
			/>
		<path style="fill:#FFFFFF;" d="M278.119,174.003v-1.729c0.994,0.461,1.721,0.734,2.178,0.83c0.459,0.095,0.884,0.141,1.272,0.141
			c0.712,0,1.271-0.191,1.683-0.576c0.41-0.385,0.614-0.851,0.614-1.386c0-0.405-0.105-0.779-0.32-1.123
			c-0.22-0.34-0.762-0.755-1.627-1.243l-0.853-0.49c-1.136-0.643-1.9-1.231-2.292-1.763c-0.39-0.531-0.585-1.123-0.585-1.773
			c0-0.583,0.155-1.129,0.466-1.64c0.31-0.509,0.727-0.908,1.247-1.196c0.521-0.289,1.179-0.436,1.974-0.436
			c0.953,0,1.963,0.159,3.023,0.476v1.602c-0.924-0.362-1.56-0.582-1.903-0.659c-0.344-0.071-0.688-0.113-1.029-0.113
			c-0.716,0-1.247,0.188-1.592,0.561c-0.344,0.371-0.516,0.75-0.516,1.14c0,0.267,0.081,0.537,0.246,0.813
			c0.161,0.276,0.382,0.509,0.657,0.706s0.652,0.433,1.131,0.703l0.888,0.501c1.148,0.647,1.915,1.242,2.3,1.78
			c0.385,0.545,0.576,1.169,0.576,1.872c0,0.961-0.366,1.792-1.1,2.497c-0.734,0.703-1.814,1.055-3.243,1.055
			c-0.44,0-0.867-0.028-1.28-0.086C279.622,174.405,278.984,174.251,278.119,174.003z"/>
		<path style="fill:#FFFFFF;" d="M288.055,174.248v-12.325h6.912v1.305h-5.161v3.956h4.33v1.296h-4.33v4.462h5.515v1.307H288.055z"
			/>
		<path style="fill:#FFFFFF;" d="M297.304,174.248v-12.325h3.731c1.381,0,2.338,0.311,2.863,0.928
			c0.528,0.62,0.792,1.328,0.792,2.126c0,0.467-0.093,0.926-0.278,1.381c-0.188,0.455-0.452,0.859-0.796,1.214
			c-0.345,0.357-0.813,0.655-1.406,0.898l4.104,5.778h-2.135l-3.514-5.223h-1.632v5.223H297.304z M299.035,167.72h0.566
			c1.296,0,2.168-0.268,2.621-0.805c0.449-0.539,0.679-1.129,0.679-1.773c0-0.381-0.086-0.716-0.254-1.004
			c-0.169-0.283-0.436-0.506-0.792-0.668c-0.359-0.161-0.934-0.243-1.72-0.243h-1.101V167.72z"/>
		<path style="fill:#FFFFFF;" d="M311.463,174.248l-4.66-12.325h1.751l3.815,10.089l3.681-10.089h1.529l-4.47,12.325H311.463z"/>
		<path style="fill:#FFFFFF;" d="M319.237,174.248v-12.325h1.751v12.325H319.237z"/>
		<path style="fill:#FFFFFF;" d="M333.434,173.61c-0.506,0.264-0.957,0.455-1.356,0.581c-0.394,0.122-0.81,0.216-1.234,0.273
			c-0.43,0.058-0.89,0.086-1.391,0.086c-2.08,0-3.599-0.612-4.563-1.837c-0.963-1.227-1.442-2.768-1.442-4.619
			c0-1.892,0.501-3.444,1.498-4.653c1.001-1.215,2.534-1.822,4.598-1.822c1.099,0,2.389,0.182,3.871,0.546v1.64
			c-1.24-0.43-2.1-0.683-2.564-0.762c-0.472-0.077-0.916-0.119-1.337-0.119c-1.477,0-2.549,0.502-3.212,1.503
			c-0.662,1.002-0.992,2.231-0.992,3.684c0,1.513,0.38,2.74,1.144,3.674c0.765,0.936,1.842,1.4,3.244,1.4
			c0.39,0,0.773-0.032,1.157-0.102c0.39-0.07,0.774-0.172,1.154-0.308c0.384-0.138,0.859-0.356,1.427-0.663V173.61z"/>
		<path style="fill:#FFFFFF;" d="M335.969,174.248v-12.325h6.911v1.305h-5.161v3.956h4.331v1.296h-4.331v4.462h5.515v1.307H335.969z
			"/>
		<path style="fill:#FFFFFF;" d="M344.468,174.003v-1.729c0.992,0.461,1.722,0.734,2.176,0.83c0.461,0.095,0.885,0.141,1.274,0.141
			c0.709,0,1.271-0.191,1.681-0.576c0.409-0.385,0.617-0.851,0.617-1.386c0-0.405-0.106-0.779-0.324-1.123
			c-0.218-0.34-0.759-0.755-1.624-1.243l-0.855-0.49c-1.133-0.643-1.897-1.231-2.291-1.763c-0.39-0.531-0.582-1.123-0.582-1.773
			c0-0.583,0.152-1.129,0.466-1.64c0.308-0.509,0.724-0.908,1.244-1.196c0.521-0.289,1.179-0.436,1.973-0.436
			c0.957,0,1.964,0.159,3.026,0.476v1.602c-0.927-0.362-1.559-0.582-1.902-0.659c-0.345-0.071-0.688-0.113-1.032-0.113
			c-0.714,0-1.245,0.188-1.589,0.561c-0.344,0.371-0.517,0.75-0.517,1.14c0,0.267,0.082,0.537,0.243,0.813
			c0.162,0.276,0.386,0.509,0.658,0.706c0.277,0.197,0.652,0.433,1.134,0.703l0.885,0.501c1.149,0.647,1.918,1.242,2.302,1.78
			c0.386,0.545,0.577,1.169,0.577,1.872c0,0.961-0.369,1.792-1.103,2.497c-0.733,0.703-1.812,1.055-3.244,1.055
			c-0.439,0-0.865-0.028-1.279-0.086C345.972,174.405,345.333,174.251,344.468,174.003z"/>
		<path style="fill:#FFFFFF;" d="M359.804,174.248v-12.325h1.751v11.019h5.473v1.307H359.804z"/>
		<path style="fill:#FFFFFF;" d="M371.825,174.248v-11.021h-4.371v-1.305h10.494v1.305h-4.371v11.021H371.825z"/>
		<path style="fill:#FFFFFF;" d="M379.694,174.248v-12.325h4.098c1.578,0,2.777,0.229,3.597,0.688
			c0.814,0.458,1.458,1.129,1.918,2.01c0.465,0.879,0.698,1.938,0.698,3.177c0,1.169-0.213,2.244-0.639,3.22
			c-0.424,0.979-1.071,1.762-1.937,2.351c-0.866,0.587-2.069,0.881-3.613,0.881H379.694z M381.444,172.941h2.235
			c1.165,0,2.034-0.182,2.611-0.55c0.582-0.371,1.031-0.957,1.36-1.756c0.324-0.801,0.49-1.69,0.49-2.675
			c0-0.867-0.141-1.656-0.424-2.37c-0.283-0.713-0.739-1.286-1.371-1.716c-0.633-0.43-1.786-0.647-3.466-0.647h-1.437V172.941z"/>
	</g>
</g>
</svg>
